# xmcd CD database file
#
# Track frame offsets:
#	150
#	19356
#	36221
#	56268
#	75477
#	92367
#	112468
#
# Disc length: 1701 seconds
#
# Revision: 0
# Processed by: cddbd v1.5.1PL0 Copyright (c) Steve Scherf et al.
# Submitted via: CDex 1.51
#
DISCID=5006a307
DTITLE=Purple - Lien〜おわらないきみのうた〜 特典CD "Less"
DYEAR=2000
DGENRE=Game
TTITLE0=浅井夕子 - 風が吹く街へ
TTITLE1=浅井夕子 - おわらないきみのうた
TTITLE2=浅井夕子 - いつか見せた笑顔で
TTITLE3=カスミ - 風が吹く街へ
TTITLE4=カスミ - おわらないきみのうた
TTITLE5=カスミ - いつか見せた笑顔で
TTITLE6=カスミ - 恋が教えてくれた
EXTD=YEAR: 2000/01/28
EXTT0=
EXTT1=
EXTT2=
EXTT3=
EXTT4=
EXTT5=
EXTT6=
PLAYORDER=
